<svg width="28" height="28" viewBox="0 0 28 28" fill="none" xmlns="http://www.w3.org/2000/svg">
<path d="M0.669434 14.0026C0.670985 20.5618 5.44064 26.1467 11.9188 27.1746V17.856H8.5361V14.0026H11.9228V11.0693C11.7714 9.67936 12.2461 8.2941 13.2183 7.28922C14.1904 6.28434 15.5592 5.764 16.9534 5.86931C17.9541 5.88547 18.9524 5.9746 19.9401 6.13598V9.41465H18.2548C17.6746 9.33865 17.0912 9.53028 16.6691 9.93553C16.247 10.3408 16.0318 10.9158 16.0841 11.4986V14.0026H19.7788L19.1881 17.8573H16.0841V27.1746C23.0901 26.0674 28.0029 19.669 27.2634 12.6147C26.524 5.56047 20.3912 0.319883 13.3079 0.689549C6.22458 1.05921 0.67056 6.90972 0.669434 14.0026Z" fill="#282828"/>
</svg>
