<svg width="25" height="25" viewBox="0 0 25 25" fill="none" xmlns="http://www.w3.org/2000/svg">
<path d="M12.0027 24.0547C8.72269 24.0547 8.33602 24.0373 7.05602 23.9813C6.05785 23.9485 5.0726 23.7456 4.14269 23.3813C2.53377 22.7552 1.26154 21.4825 0.636019 19.8733C0.28576 18.94 0.0968427 17.954 0.0773522 16.9573C0.00268555 15.68 0.00268555 15.2613 0.00268555 12.0067C0.00268555 8.71732 0.0200189 8.33332 0.0773522 7.05999C0.0972691 6.06468 0.28618 5.08 0.636019 4.14799C1.26086 2.53669 2.53515 1.26288 4.14669 0.638653C5.07821 0.286923 6.06315 0.0975119 7.05869 0.0786528C8.33202 0.00665283 8.75069 0.00665283 12.0027 0.00665283C15.3094 0.00665283 15.6894 0.0239862 16.9494 0.0786528C17.9475 0.097675 18.935 0.287066 19.8694 0.638653C21.4804 1.26359 22.7545 2.53715 23.38 4.14799C23.7362 5.09358 23.9261 6.09366 23.9414 7.10399C24.016 8.38132 24.016 8.79865 24.016 12.052C24.016 15.3053 23.9974 15.732 23.9414 16.9947C23.9215 17.9923 23.7321 18.9792 23.3814 19.9133C22.7542 21.5236 21.4801 22.7968 19.8694 23.4227C18.9363 23.7722 17.9508 23.9611 16.9547 23.9813C15.6814 24.0547 15.264 24.0547 12.0027 24.0547ZM11.9574 2.11732C8.69602 2.11732 8.35735 2.13332 7.08402 2.19065C6.324 2.20072 5.57132 2.34097 4.85869 2.60532C3.80636 3.008 2.97365 3.83731 2.56669 4.88799C2.3003 5.60838 2.16003 6.36929 2.15202 7.13732C2.08135 8.42932 2.08135 8.76799 2.08135 12.0067C2.08135 15.2067 2.09335 15.5947 2.15202 16.8787C2.16395 17.6389 2.30415 18.3917 2.56669 19.1053C2.97425 20.1553 3.80681 20.984 4.85869 21.3867C5.57084 21.6528 6.32382 21.7931 7.08402 21.8013C8.37469 21.876 8.71469 21.876 11.9574 21.876C15.228 21.876 15.5667 21.86 16.8294 21.8013C17.5899 21.7921 18.3431 21.6518 19.056 21.3867C20.102 20.9805 20.9293 20.1537 21.336 19.108C21.6019 18.387 21.7421 17.6257 21.7507 16.8573H21.7654C21.8227 15.5827 21.8227 15.2427 21.8227 11.9853C21.8227 8.72799 21.808 8.38532 21.7507 7.11199C21.7387 6.35259 21.5985 5.60067 21.336 4.88799C20.9302 3.84075 20.1028 3.01238 19.056 2.60532C18.3433 2.33964 17.5899 2.19935 16.8294 2.19065C15.54 2.11732 15.2027 2.11732 11.9574 2.11732ZM12.0027 18.1653C9.50934 18.1669 7.26058 16.6663 6.30517 14.3633C5.34976 12.0602 5.87589 9.40843 7.63819 7.6446C9.40049 5.88077 12.0518 5.35235 14.3557 6.30576C16.6596 7.25918 18.1621 9.50664 18.1627 12C18.159 15.4014 15.4041 18.1587 12.0027 18.1653ZM12.0027 7.99732C9.79355 7.99732 8.00269 9.78818 8.00269 11.9973C8.00269 14.2065 9.79355 15.9973 12.0027 15.9973C14.2118 15.9973 16.0027 14.2065 16.0027 11.9973C15.9976 9.79031 14.2097 8.00245 12.0027 7.99732ZM18.4027 7.04666C17.6099 7.04371 16.9692 6.39944 16.9707 5.60666C16.9722 4.81389 17.6152 4.172 18.408 4.172C19.2008 4.172 19.8439 4.81388 19.8454 5.60665C19.8457 5.98914 19.6937 6.35602 19.423 6.62622C19.1523 6.89643 18.7852 7.04772 18.4027 7.04666Z" fill="#282828"/>
</svg>
