<svg width="137" height="40" viewBox="0 0 137 40" fill="none" xmlns="http://www.w3.org/2000/svg">
<g clip-path="url(#clip0_17_5)">
<path d="M19.3674 0.303345V21.2764C19.3674 23.1227 18.7687 24.6526 17.5847 25.8237C16.428 26.9675 14.9986 27.5737 13.2701 27.5737H9.21436L15.8019 30.9776C20.3479 30.0403 23.8457 26.3336 23.8457 21.1388V0.289733H19.3545L19.3674 0.303345ZM32.4196 0.303345H27.8059V4.91963H32.4196V0.303345ZM32.4062 8.87429H28.01V30.3024H32.4062V8.87429ZM47.8672 15.8473V17.7214H36.0673V15.8473H47.8672ZM53.6928 8.55733H58.8101V10.4314H53.6928V26.058C53.6928 27.4911 54.7817 28.704 56.2107 28.704H58.8101V30.578H55.9519C53.5972 30.578 51.5283 28.635 51.5283 26.2374V10.4455H49.6639V8.57143H51.5283V4.16175H53.6789V8.57143L53.6928 8.55733ZM62.0492 23.0542V15.7647C62.0492 13.5601 62.7295 11.5893 64.4581 10.1975C66.2 8.79213 68.2824 8.24086 70.4872 8.24086C72.692 8.24086 74.7744 8.79213 76.5163 10.1975C78.2449 11.5893 78.9252 13.5601 78.9252 15.7647V23.0542C78.9252 25.2452 78.2309 27.2159 76.5163 28.6213C74.7878 30.0408 72.6781 30.578 70.4872 30.578C65.887 30.578 62.0487 28.0565 62.0487 23.0678V23.0542H62.0492ZM76.7756 23.0129V15.7647C76.7756 11.8786 74.0263 10.1698 70.4469 10.1698C66.8674 10.1698 64.1997 11.9063 64.1997 15.7647V23.0129C64.1997 26.8849 66.8948 28.6491 70.4877 28.6491C74.0811 28.6491 76.7756 26.8849 76.7756 23.0129ZM96.3611 28.2354C94.5101 29.2689 91.8425 30.5644 89.7327 30.5644C87.7185 30.5644 85.8402 29.9995 84.37 28.5664C82.968 27.2023 82.3011 25.5349 82.3011 23.5641V8.54372H84.37V23.4261C84.37 26.6783 87.0377 28.6763 90.1135 28.6763C92.155 28.6763 94.4415 27.6151 96.1974 26.6229V8.54324H98.3479V30.1779H96.4153L96.3745 28.2349H96.3611V28.2354ZM102.2 23.5228V15.2547C102.2 12.8158 103.275 10.8864 105.317 9.61855C106.786 8.70901 108.746 8.17183 110.475 8.17183C112.326 8.17183 114.177 8.41976 116.001 8.77803L116.082 8.79165L115.987 10.6244L115.865 10.5966C114.191 10.252 112.476 10.0454 110.761 10.0454C107.631 10.0454 104.351 11.7818 104.351 15.3369V23.3984C104.351 27.0088 107.59 28.6899 110.761 28.6899C112.476 28.6899 114.177 28.4833 115.865 28.1386L115.987 28.1109L116.082 29.9849L116.001 29.9985C114.15 30.3568 112.272 30.5634 110.393 30.5634C108.692 30.5634 106.746 30.0122 105.303 29.1026C103.289 27.8348 102.213 25.9331 102.213 23.5218H102.2V23.5228ZM122.221 8.95693C124.153 8.4883 126.14 8.21267 128.127 8.21267C132.36 8.21267 136.103 10.5417 136.103 15.2129V30.192H134.034V15.3097C134.034 11.7133 130.686 10.1008 127.569 10.1008C125.813 10.1008 123.935 10.197 122.206 10.5553V30.2056H120.056V0H122.206V8.97103L122.221 8.95693Z" fill="#0077A0"/>
<path d="M13.2428 32.6314L0 25.7964L5.09046 39.9345L7.43116 34.2711L13.2428 32.6314Z" fill="#EF7F1A"/>
</g>
<defs>
<clipPath id="clip0_17_5">
<rect width="136.327" height="40" fill="white"/>
</clipPath>
</defs>
</svg>
