<svg style="display: none;">
    <symbol id="logo" viewBox="0 0 137 40" fill="none" xmlns="http://www.w3.org/2000/svg">
        <g clip-path="url(#clip0_17_5)">
            <path d="M19.3674 0.303345V21.2764C19.3674 23.1227 18.7687 24.6526 17.5847 25.8237C16.428 26.9675 14.9986 27.5737 13.2701 27.5737H9.21436L15.8019 30.9776C20.3479 30.0403 23.8457 26.3336 23.8457 21.1388V0.289733H19.3545L19.3674 0.303345ZM32.4196 0.303345H27.8059V4.91963H32.4196V0.303345ZM32.4062 8.87429H28.01V30.3024H32.4062V8.87429ZM47.8672 15.8473V17.7214H36.0673V15.8473H47.8672ZM53.6928 8.55733H58.8101V10.4314H53.6928V26.058C53.6928 27.4911 54.7817 28.704 56.2107 28.704H58.8101V30.578H55.9519C53.5972 30.578 51.5283 28.635 51.5283 26.2374V10.4455H49.6639V8.57143H51.5283V4.16175H53.6789V8.57143L53.6928 8.55733ZM62.0492 23.0542V15.7647C62.0492 13.5601 62.7295 11.5893 64.4581 10.1975C66.2 8.79213 68.2824 8.24086 70.4872 8.24086C72.692 8.24086 74.7744 8.79213 76.5163 10.1975C78.2449 11.5893 78.9252 13.5601 78.9252 15.7647V23.0542C78.9252 25.2452 78.2309 27.2159 76.5163 28.6213C74.7878 30.0408 72.6781 30.578 70.4872 30.578C65.887 30.578 62.0487 28.0565 62.0487 23.0678V23.0542H62.0492ZM76.7756 23.0129V15.7647C76.7756 11.8786 74.0263 10.1698 70.4469 10.1698C66.8674 10.1698 64.1997 11.9063 64.1997 15.7647V23.0129C64.1997 26.8849 66.8948 28.6491 70.4877 28.6491C74.0811 28.6491 76.7756 26.8849 76.7756 23.0129ZM96.3611 28.2354C94.5101 29.2689 91.8425 30.5644 89.7327 30.5644C87.7185 30.5644 85.8402 29.9995 84.37 28.5664C82.968 27.2023 82.3011 25.5349 82.3011 23.5641V8.54372H84.37V23.4261C84.37 26.6783 87.0377 28.6763 90.1135 28.6763C92.155 28.6763 94.4415 27.6151 96.1974 26.6229V8.54324H98.3479V30.1779H96.4153L96.3745 28.2349H96.3611V28.2354ZM102.2 23.5228V15.2547C102.2 12.8158 103.275 10.8864 105.317 9.61855C106.786 8.70901 108.746 8.17183 110.475 8.17183C112.326 8.17183 114.177 8.41976 116.001 8.77803L116.082 8.79165L115.987 10.6244L115.865 10.5966C114.191 10.252 112.476 10.0454 110.761 10.0454C107.631 10.0454 104.351 11.7818 104.351 15.3369V23.3984C104.351 27.0088 107.59 28.6899 110.761 28.6899C112.476 28.6899 114.177 28.4833 115.865 28.1386L115.987 28.1109L116.082 29.9849L116.001 29.9985C114.15 30.3568 112.272 30.5634 110.393 30.5634C108.692 30.5634 106.746 30.0122 105.303 29.1026C103.289 27.8348 102.213 25.9331 102.213 23.5218H102.2V23.5228ZM122.221 8.95693C124.153 8.4883 126.14 8.21267 128.127 8.21267C132.36 8.21267 136.103 10.5417 136.103 15.2129V30.192H134.034V15.3097C134.034 11.7133 130.686 10.1008 127.569 10.1008C125.813 10.1008 123.935 10.197 122.206 10.5553V30.2056H120.056V0H122.206V8.97103L122.221 8.95693Z" fill="#0077A0"/>
            <path d="M13.2428 32.6314L0 25.7964L5.09046 39.9345L7.43116 34.2711L13.2428 32.6314Z" fill="#EF7F1A"/>
        </g>
        <defs>
            <clipPath id="clip0_17_5">
                <rect width="136.327" height="40" fill="white"/>
            </clipPath>
        </defs>
    </symbol>
    <symbol id="twit" viewBox="0 0 28 23" fill="none" xmlns="http://www.w3.org/2000/svg">
        <path d="M24.66 3.91736C25.8553 3.20281 26.7496 2.07767 27.176 0.752026C26.0529 1.41843 24.8241 1.88786 23.5427 2.14003C21.7661 0.260729 18.9514 -0.196606 16.6712 1.02357C14.3911 2.24374 13.21 4.83935 13.788 7.36002C9.1875 7.12906 4.90131 4.95591 1.99602 1.38136C0.479807 3.99659 1.25462 7.33973 3.76669 9.02136C2.8583 8.99216 1.97006 8.74621 1.17602 8.30403C1.17602 8.32803 1.17602 8.35203 1.17602 8.37603C1.17655 11.1002 3.09652 13.4468 5.76669 13.9867C4.92411 14.2159 4.0403 14.2497 3.18269 14.0854C3.93362 16.4151 6.08076 18.0111 8.52802 18.0587C6.50113 19.6495 3.99799 20.5122 1.42135 20.508C0.964648 20.5087 0.508301 20.4824 0.0546875 20.4294C2.67121 22.1107 5.71651 23.0032 8.82669 23C13.1537 23.0297 17.3121 21.3239 20.3717 18.264C23.4313 15.2042 25.1368 11.0457 25.1067 6.71869C25.1067 6.47069 25.1009 6.22403 25.0894 5.97869C26.21 5.16883 27.1771 4.16556 27.9454 3.01603C26.9014 3.47878 25.794 3.78259 24.66 3.91736Z" fill="#282828"/>
    </symbol>
    <symbol id="inst" viewBox="0 0 25 25" fill="none" xmlns="http://www.w3.org/2000/svg">
        <path d="M12.0027 24.0547C8.72269 24.0547 8.33602 24.0373 7.05602 23.9813C6.05785 23.9485 5.0726 23.7456 4.14269 23.3813C2.53377 22.7552 1.26154 21.4825 0.636019 19.8733C0.28576 18.94 0.0968427 17.954 0.0773522 16.9573C0.00268555 15.68 0.00268555 15.2613 0.00268555 12.0067C0.00268555 8.71732 0.0200189 8.33332 0.0773522 7.05999C0.0972691 6.06468 0.28618 5.08 0.636019 4.14799C1.26086 2.53669 2.53515 1.26288 4.14669 0.638653C5.07821 0.286923 6.06315 0.0975119 7.05869 0.0786528C8.33202 0.00665283 8.75069 0.00665283 12.0027 0.00665283C15.3094 0.00665283 15.6894 0.0239862 16.9494 0.0786528C17.9475 0.097675 18.935 0.287066 19.8694 0.638653C21.4804 1.26359 22.7545 2.53715 23.38 4.14799C23.7362 5.09358 23.9261 6.09366 23.9414 7.10399C24.016 8.38132 24.016 8.79865 24.016 12.052C24.016 15.3053 23.9974 15.732 23.9414 16.9947C23.9215 17.9923 23.7321 18.9792 23.3814 19.9133C22.7542 21.5236 21.4801 22.7968 19.8694 23.4227C18.9363 23.7722 17.9508 23.9611 16.9547 23.9813C15.6814 24.0547 15.264 24.0547 12.0027 24.0547ZM11.9574 2.11732C8.69602 2.11732 8.35735 2.13332 7.08402 2.19065C6.324 2.20072 5.57132 2.34097 4.85869 2.60532C3.80636 3.008 2.97365 3.83731 2.56669 4.88799C2.3003 5.60838 2.16003 6.36929 2.15202 7.13732C2.08135 8.42932 2.08135 8.76799 2.08135 12.0067C2.08135 15.2067 2.09335 15.5947 2.15202 16.8787C2.16395 17.6389 2.30415 18.3917 2.56669 19.1053C2.97425 20.1553 3.80681 20.984 4.85869 21.3867C5.57084 21.6528 6.32382 21.7931 7.08402 21.8013C8.37469 21.876 8.71469 21.876 11.9574 21.876C15.228 21.876 15.5667 21.86 16.8294 21.8013C17.5899 21.7921 18.3431 21.6518 19.056 21.3867C20.102 20.9805 20.9293 20.1537 21.336 19.108C21.6019 18.387 21.7421 17.6257 21.7507 16.8573H21.7654C21.8227 15.5827 21.8227 15.2427 21.8227 11.9853C21.8227 8.72799 21.808 8.38532 21.7507 7.11199C21.7387 6.35259 21.5985 5.60067 21.336 4.88799C20.9302 3.84075 20.1028 3.01238 19.056 2.60532C18.3433 2.33964 17.5899 2.19935 16.8294 2.19065C15.54 2.11732 15.2027 2.11732 11.9574 2.11732ZM12.0027 18.1653C9.50934 18.1669 7.26058 16.6663 6.30517 14.3633C5.34976 12.0602 5.87589 9.40843 7.63819 7.6446C9.40049 5.88077 12.0518 5.35235 14.3557 6.30576C16.6596 7.25918 18.1621 9.50664 18.1627 12C18.159 15.4014 15.4041 18.1587 12.0027 18.1653ZM12.0027 7.99732C9.79355 7.99732 8.00269 9.78818 8.00269 11.9973C8.00269 14.2065 9.79355 15.9973 12.0027 15.9973C14.2118 15.9973 16.0027 14.2065 16.0027 11.9973C15.9976 9.79031 14.2097 8.00245 12.0027 7.99732ZM18.4027 7.04666C17.6099 7.04371 16.9692 6.39944 16.9707 5.60666C16.9722 4.81389 17.6152 4.172 18.408 4.172C19.2008 4.172 19.8439 4.81388 19.8454 5.60665C19.8457 5.98914 19.6937 6.35602 19.423 6.62622C19.1523 6.89643 18.7852 7.04772 18.4027 7.04666Z" fill="#282828"/>
    </symbol>
    <symbol id="fb" viewBox="0 0 28 28" fill="none" xmlns="http://www.w3.org/2000/svg">
        <path d="M0.669434 14.0026C0.670985 20.5618 5.44064 26.1467 11.9188 27.1746V17.856H8.5361V14.0026H11.9228V11.0693C11.7714 9.67936 12.2461 8.2941 13.2183 7.28922C14.1904 6.28434 15.5592 5.764 16.9534 5.86931C17.9541 5.88547 18.9524 5.9746 19.9401 6.13598V9.41465H18.2548C17.6746 9.33865 17.0912 9.53028 16.6691 9.93553C16.247 10.3408 16.0318 10.9158 16.0841 11.4986V14.0026H19.7788L19.1881 17.8573H16.0841V27.1746C23.0901 26.0674 28.0029 19.669 27.2634 12.6147C26.524 5.56047 20.3912 0.319883 13.3079 0.689549C6.22458 1.05921 0.67056 6.90972 0.669434 14.0026Z" fill="#282828"/>
    </symbol>
    <symbol id="person" viewBox="0 0 25 25" fill="none" xmlns="http://www.w3.org/2000/svg">
        <path d="M12.5 3.125C14.2188 3.125 15.625 4.53125 15.625 6.25C15.625 7.96875 14.2188 9.375 12.5 9.375C10.7812 9.375 9.375 7.96875 9.375 6.25C9.375 4.53125 10.7812 3.125 12.5 3.125ZM12.5 17.1875C16.7188 17.1875 21.5625 19.2031 21.875 20.3125V21.875H3.125V20.3281C3.4375 19.2031 8.28125 17.1875 12.5 17.1875ZM12.5 0C9.04688 0 6.25 2.79688 6.25 6.25C6.25 9.70312 9.04688 12.5 12.5 12.5C15.9531 12.5 18.75 9.70312 18.75 6.25C18.75 2.79688 15.9531 0 12.5 0ZM12.5 14.0625C8.32812 14.0625 0 16.1562 0 20.3125V25H25V20.3125C25 16.1562 16.6719 14.0625 12.5 14.0625Z" fill="#282828"/>
    </symbol>
</svg>