<svg width="28" height="23" viewBox="0 0 28 23" fill="none" xmlns="http://www.w3.org/2000/svg">
<path d="M24.66 3.91736C25.8553 3.20281 26.7496 2.07767 27.176 0.752026C26.0529 1.41843 24.8241 1.88786 23.5427 2.14003C21.7661 0.260729 18.9514 -0.196606 16.6712 1.02357C14.3911 2.24374 13.21 4.83935 13.788 7.36002C9.1875 7.12906 4.90131 4.95591 1.99602 1.38136C0.479807 3.99659 1.25462 7.33973 3.76669 9.02136C2.8583 8.99216 1.97006 8.74621 1.17602 8.30403C1.17602 8.32803 1.17602 8.35203 1.17602 8.37603C1.17655 11.1002 3.09652 13.4468 5.76669 13.9867C4.92411 14.2159 4.0403 14.2497 3.18269 14.0854C3.93362 16.4151 6.08076 18.0111 8.52802 18.0587C6.50113 19.6495 3.99799 20.5122 1.42135 20.508C0.964648 20.5087 0.508301 20.4824 0.0546875 20.4294C2.67121 22.1107 5.71651 23.0032 8.82669 23C13.1537 23.0297 17.3121 21.3239 20.3717 18.264C23.4313 15.2042 25.1368 11.0457 25.1067 6.71869C25.1067 6.47069 25.1009 6.22403 25.0894 5.97869C26.21 5.16883 27.1771 4.16556 27.9454 3.01603C26.9014 3.47878 25.794 3.78259 24.66 3.91736Z" fill="#282828"/>
</svg>
